Coordinates
version=1
nRows=58
nColumns=6
inDegrees=yes

Units are S.I. units (second, meters, Newtons, ...)
If the header above contains a line with 'inDegrees', this indicates whether rotational values are in degrees (yes) or radians (no).

endheader
time	foot_tx	hip_flexion_r	knee_angle_r	ankle_angle_r	lumbar
    185.60000000	      0.21332389	     65.80654990	    -80.99862500	     -0.15577920	    -32.34708957
    185.61000000	      0.21329637	     65.82906484	    -80.93912255	     -0.19677206	    -32.75691792
    185.62000000	      0.21327035	     65.85795639	    -80.87677699	     -0.24004936	    -33.18945463
    185.63000000	      0.21325004	     65.90717139	    -80.81187682	     -0.28792364	    -33.63293930
    185.64000000	      0.21322902	     65.97635942	    -80.74487743	     -0.34011035	    -34.08987886
    185.65000000	      0.21320522	     66.06462110	    -80.67637913	     -0.39585127	    -34.56200048
    185.66000000	      0.21318026	     66.16907695	    -80.60687901	     -0.45388737	    -35.05181960
    185.67000000	      0.21314917	     66.27558149	    -80.53666705	     -0.51124007	    -35.57371104
    185.68000000	      0.21311210	     66.37570205	    -80.46594510	     -0.56589674	    -36.13622035
    185.69000000	      0.21307750	     66.47283514	    -80.39494430	     -0.61785969	    -36.73571547
    185.70000000	      0.21304061	     66.56459023	    -80.32404400	     -0.66613108	    -37.37659892
    185.71000000	      0.21300669	     66.65578772	    -80.25353246	     -0.71129137	    -38.05522632
    185.72000000	      0.21297403	     66.75230707	    -80.18290849	     -0.75437681	    -38.76814660
    185.73000000	      0.21293996	     66.85941297	    -80.11156347	     -0.79648572	    -39.51267814
    185.74000000	      0.21291120	     66.98825866	    -80.03778944	     -0.84034076	    -40.27895437
    185.75000000	      0.21288431	     67.14532390	    -79.96127270	     -0.88655596	    -41.06163711
    185.76000000	      0.21284188	     67.33561874	    -79.88510946	     -0.93265213	    -41.85596253
    185.77000000	      0.21279551	     67.56880556	    -79.80605415	     -0.98158603	    -42.65188722
    185.78000000	      0.21274780	     67.84818846	    -79.72315939	     -1.03355907	    -43.44455954
    185.79000000	      0.21269361	     68.17772083	    -79.63713648	     -1.08710498	    -44.22692498
    185.80000000	      0.21263309	     68.55631375	    -79.54714490	     -1.14092063	    -44.99590060
    185.81000000	      0.21256945	     68.98604587	    -79.45231064	     -1.19396553	    -45.74392178
    185.82000000	      0.21249225	     69.47383217	    -79.35784822	     -1.24143819	    -46.45588971
    185.83000000	      0.21241162	     70.03200387	    -79.26263827	     -1.28383946	    -47.11264073
    185.84000000	      0.21232820	     70.66212060	    -79.17302356	     -1.31573432	    -47.70104012
    185.85000000	      0.21223779	     71.39702540	    -79.09131194	     -1.33689615	    -48.17879768
    185.86000000	      0.21215024	     72.21489499	    -79.01920390	     -1.34236680	    -48.55771265
    185.87000000	      0.21207113	     73.12839344	    -78.95782710	     -1.33089735	    -48.81475969
    185.88000000	      0.21198777	     74.12666433	    -78.91512986	     -1.29415267	    -48.95104712
    185.89000000	      0.21192155	     75.21187024	    -78.88818372	     -1.23343165	    -48.95759861
    185.90000000	      0.21187946	     76.37953287	    -78.88072395	     -1.14540698	    -48.83306213
    185.91000000	      0.21185148	     77.61679907	    -78.89832910	     -1.02469299	    -48.58818266
    185.92000000	      0.21184417	     78.91389725	    -78.94018846	     -0.87112223	    -48.23277541
    185.93000000	      0.21185863	     80.26081492	    -79.00714769	     -0.68369365	    -47.77788283
    185.94000000	      0.21189359	     81.64734175	    -79.09569363	     -0.46359338	    -47.23513922
    185.95000000	      0.21194105	     83.05940253	    -79.20118668	     -0.21175953	    -46.61931133
    185.96000000	      0.21199713	     84.47823846	    -79.31659856	      0.06946537	    -45.95040612
    185.97000000	      0.21205969	     85.88574785	    -79.43327079	      0.37675041	    -45.24711367
    185.98000000	      0.21212477	     87.26284960	    -79.54442190	      0.70766553	    -44.52921780
    185.99000000	      0.21219297	     88.58919599	    -79.64303498	      1.05989671	    -43.81712861
    186.00000000	      0.21226656	     89.84764142	    -79.72485557	      1.43156881	    -43.12801225
    186.01000000	      0.21234858	     91.02681883	    -79.78838722	      1.82123979	    -42.47244505
    186.02000000	      0.21244645	     92.11698226	    -79.83376589	      2.22724866	    -41.85916454
    186.03000000	      0.21256316	     93.11414734	    -79.86428222	      2.64859227	    -41.29012084
    186.04000000	      0.21270123	     94.01691053	    -79.88450217	      3.08384505	    -40.76378523
    186.05000000	      0.21285509	     94.82072353	    -79.90071135	      3.53248673	    -40.28142462
    186.06000000	      0.21302107	     95.51632405	    -79.91848557	      3.99358326	    -39.84883768
    186.07000000	      0.21318986	     96.08860518	    -79.94316991	      4.46666680	    -39.47870510
    186.08000000	      0.21336439	     96.52126842	    -79.97802728	      4.95056443	    -39.18369202
    186.09000000	      0.21355025	     96.80053267	    -80.02371181	      5.44292663	    -38.97483954
    186.10000000	      0.21376101	     96.91918777	    -80.07726370	      5.93973875	    -38.85667878
    186.11000000	      0.21398694	     96.88010900	    -80.13614017	      6.43967158	    -38.82028304
    186.12000000	      0.21423696	     96.69813729	    -80.19318203	      6.93807663	    -38.84523968
    186.13000000	      0.21450230	     96.39148828	    -80.23749442	      7.43049005	    -38.91056787
    186.14000000	      0.21477772	     95.99018007	    -80.26068848	      7.91336458	    -38.97955200
    186.15000000	      0.21505687	     95.50758304	    -80.25108405	      8.38311939	    -39.03947691
    186.16000000	      0.21534051	     94.96134515	    -80.19868663	      8.83582639	    -39.07232627
    186.17000000	      0.21562736	     94.35941930	    -80.09466560	      9.26863828	    -39.07376662
